<?xml version="1.0" encoding="UTF-8" standalone="no"?>
<svg
   width="456"
   height="456"
   viewBox="0 0 456 456"
   version="1.1"
   xml:space="preserve"
   style="fill-rule:evenodd;clip-rule:evenodd;stroke-linejoin:round;stroke-miterlimit:2;"
   id="svg4"
   sodipodi:docname="splash.svg"
   inkscape:version="1.4 (86a8ad7, 2024-10-11)"
   xmlns:inkscape="http://www.inkscape.org/namespaces/inkscape"
   xmlns:sodipodi="http://sodipodi.sourceforge.net/DTD/sodipodi-0.dtd"
   xmlns="http://www.w3.org/2000/svg"
   xmlns:svg="http://www.w3.org/2000/svg"><defs
   id="defs4" /><sodipodi:namedview
   id="namedview4"
   pagecolor="#505050"
   bordercolor="#eeeeee"
   borderopacity="1"
   inkscape:showpageshadow="0"
   inkscape:pageopacity="0"
   inkscape:pagecheckerboard="0"
   inkscape:deskcolor="#505050"
   inkscape:zoom="0.44243421"
   inkscape:cx="-145.78439"
   inkscape:cy="64.416357"
   inkscape:window-width="1920"
   inkscape:window-height="1009"
   inkscape:window-x="-8"
   inkscape:window-y="-8"
   inkscape:window-maximized="1"
   inkscape:current-layer="svg4" />
    
    
    
    
<g
   id="g21"
   transform="matrix(-1.5304877,0,0,1.0883953,535.55747,-11.941134)"
   style="clip-rule:evenodd;fill-rule:evenodd;stroke-linejoin:round;stroke-miterlimit:2"><path
     style="fill:#ff9109;fill-opacity:1;stroke:none;stroke-width:1.88976"
     d="m 141.26394,33.903346 c 0,0 -33.90334,75.152414 -35.59852,192.118954 55.37547,20.34201 92.66916,9.60595 92.66916,9.60595 0,0 -1.13011,-109.62082 -57.07064,-201.724904 z"
     id="path19"
     sodipodi:nodetypes="cccc" /><path
     style="fill:#000000;fill-opacity:1;stroke:none;stroke-width:1.88976"
     d="m 141.26394,33.903346 c 0,0 -8.61709,5.226764 -23.02603,75.011144 35.59852,1.41264 51.42009,-18.364307 51.42009,-18.364307 0,0 -9.46468,-29.524166 -28.39406,-56.646837 z"
     id="path20"
     sodipodi:nodetypes="cccc" /><path
     style="fill:#cf7200;fill-opacity:1;stroke:none;stroke-width:10;stroke-dasharray:none;stroke-opacity:1"
     d="m 172.62454,128.26766 c 0,0 -25.14499,-73.457251 -31.07807,-80.802976 -5.93309,11.583643 -20.05948,74.587366 -22.3197,151.152416 -2.26022,76.56506 53.39777,-70.34944 53.39777,-70.34944 z"
     id="path21"
     sodipodi:nodetypes="ccsc" /></g><g
   id="g18"
   transform="matrix(1.5304877,0,0,1.0883953,-60.803728,-11.376077)"
   style="clip-rule:evenodd;fill-rule:evenodd;stroke-linejoin:round;stroke-miterlimit:2"><path
     style="fill:#ff9109;fill-opacity:1;stroke:none;stroke-width:1.88976"
     d="m 141.26394,33.903346 c 0,0 -33.90334,75.152414 -35.59852,192.118954 55.37547,20.34201 92.66916,9.60595 92.66916,9.60595 0,0 -1.13011,-109.62082 -57.07064,-201.724904 z"
     id="path7"
     sodipodi:nodetypes="cccc" /><path
     style="fill:#000000;fill-opacity:1;stroke:none;stroke-width:1.88976"
     d="m 141.26394,33.903346 c 0,0 -8.61709,5.226764 -23.02603,75.011144 35.59852,1.41264 51.42009,-18.364307 51.42009,-18.364307 0,0 -9.46468,-29.524166 -28.39406,-56.646837 z"
     id="path14"
     sodipodi:nodetypes="cccc" /><path
     style="fill:#cf7200;fill-opacity:1;stroke:none;stroke-width:10;stroke-dasharray:none;stroke-opacity:1"
     d="m 172.62454,128.26766 c 0,0 -25.14499,-73.457251 -31.07807,-80.802976 -5.93309,11.583643 -20.05948,74.587366 -22.3197,151.152416 -2.26022,76.56506 53.39777,-70.34944 53.39777,-70.34944 z"
     id="path13"
     sodipodi:nodetypes="ccsc" /></g><ellipse
   style="clip-rule:evenodd;fill:#ff9109;fill-opacity:1;fill-rule:evenodd;stroke:none;stroke-width:2.33069;stroke-linejoin:round;stroke-miterlimit:2;stroke-opacity:1"
   id="path5"
   cx="237.65939"
   cy="253.32239"
   rx="139.03197"
   ry="132.41141" /><path
   id="ellipse5"
   style="clip-rule:evenodd;fill:#ffffff;fill-rule:evenodd;stroke-width:2.77367;stroke-linejoin:round;stroke-miterlimit:2"
   d="m 424.72111,277.97315 c -33.55332,72.55292 -83.4974,139.8013 -186.49666,139.8013 -102.99926,0 -154.481098,-66.81916 -186.496658,-139.8013 -29.3829,-66.98077 169.869778,-31.46673 189.886988,30.5434 19.43553,-55.11924 213.05429,-95.30039 183.10633,-30.5434 z"
   sodipodi:nodetypes="ssscs" /><ellipse
   style="clip-rule:evenodd;fill:#000000;fill-opacity:1;fill-rule:evenodd;stroke:none;stroke-width:5.17471;stroke-linejoin:round;stroke-miterlimit:2;stroke-opacity:1"
   id="path8"
   cx="187.37216"
   cy="246.38753"
   rx="23.110489"
   ry="43.509293" /><path
   id="ellipse9"
   style="clip-rule:evenodd;fill-rule:evenodd;stroke-width:3.2545;stroke-linejoin:round;stroke-miterlimit:2"
   d="m 264.91919,288.53754 c 0,10.92251 -14.59556,26.02284 -23.50693,25.97005 -8.30717,-0.0492 -22.30826,-15.04755 -22.30826,-25.97005 0,-10.92251 12.59986,-5.79253 23.7067,-5.79254 11.10684,0 22.10849,-5.12997 22.10849,5.79254 z"
   sodipodi:nodetypes="sssss" /><path
   style="clip-rule:evenodd;fill:none;fill-opacity:1;fill-rule:evenodd;stroke:#000000;stroke-width:10;stroke-linejoin:round;stroke-miterlimit:2;stroke-dasharray:none;stroke-opacity:1"
   d="m 244.58424,297.88104 c 0,0 -29.94795,86.45353 -101.71004,20.34201"
   id="path10"
   sodipodi:nodetypes="cc" /><ellipse
   style="clip-rule:evenodd;fill:#ffffff;fill-opacity:1;fill-rule:evenodd;stroke:none;stroke-width:2.23728;stroke-linejoin:round;stroke-miterlimit:2;stroke-opacity:1"
   id="ellipse13"
   cx="193.32431"
   cy="230.61081"
   rx="9.9918261"
   ry="18.811256" /><ellipse
   style="clip-rule:evenodd;fill:#000000;fill-opacity:1;fill-rule:evenodd;stroke:none;stroke-width:5.17471;stroke-linejoin:round;stroke-miterlimit:2;stroke-opacity:1"
   id="ellipse17"
   cx="291.9075"
   cy="245.25742"
   rx="23.110489"
   ry="43.509293" /><ellipse
   style="clip-rule:evenodd;fill:#ffffff;fill-opacity:1;fill-rule:evenodd;stroke:none;stroke-width:2.23728;stroke-linejoin:round;stroke-miterlimit:2;stroke-opacity:1"
   id="ellipse18"
   cx="297.85965"
   cy="229.4807"
   rx="9.9918261"
   ry="18.811256" /><path
   style="clip-rule:evenodd;fill:none;fill-opacity:1;fill-rule:evenodd;stroke:#000000;stroke-width:10;stroke-linejoin:round;stroke-miterlimit:2;stroke-dasharray:none;stroke-opacity:1"
   d="m 237.35596,296.75093 c 0,0 29.94795,86.45353 101.71004,20.34201"
   id="path18"
   sodipodi:nodetypes="cc" /></svg>
